<svg height="512pt" viewBox="-67 0 512 512" width="512pt" xmlns="http://www.w3.org/2000/svg"><path d="m362.992188 53.074219h-108.183594v-37.804688c0-8.433593-6.835938-15.269531-15.269532-15.269531h-100.820312c-8.429688 0-15.265625 6.835938-15.265625 15.269531v37.804688h-108.183594c-8.433593 0-15.269531 6.839843-15.269531 15.269531v69.320312c0 8.433594 6.835938 15.269532 15.269531 15.269532h12.542969v343.796875c0 8.433593 6.835938 15.269531 15.269531 15.269531h292.097657c8.433593 0 15.269531-6.835938 15.269531-15.269531v-343.796875h12.542969c8.433593 0 15.269531-6.835938 15.269531-15.269532v-69.320312c0-8.433594-6.835938-15.269531-15.269531-15.269531zm-209.003907-22.539063h70.285157v22.320313h-70.285157zm-123.453125 53.078125h317.1875v38.785157h-317.1875zm289.375 397.851563h-261.558594v-328.53125h261.5625v328.53125zm0 0"/><path d="m264.167969 440.308594c8.433593 0 15.269531-6.835938 15.269531-15.269532v-215.683593c0-8.429688-6.835938-15.269531-15.269531-15.269531-8.429688 0-15.269531 6.839843-15.269531 15.269531v215.6875c0 8.429687 6.839843 15.265625 15.269531 15.265625zm0 0"/><path d="m189.128906 440.308594c8.433594 0 15.269532-6.835938 15.269532-15.269532v-215.683593c0-8.429688-6.835938-15.269531-15.269532-15.269531-8.429687 0-15.265625 6.839843-15.265625 15.269531v215.6875c0 8.429687 6.835938 15.265625 15.265625 15.265625zm0 0"/><path d="m114.09375 440.308594c8.429688 0 15.265625-6.835938 15.265625-15.269532v-215.683593c0-8.429688-6.835937-15.269531-15.265625-15.269531-8.433594 0-15.269531 6.839843-15.269531 15.269531v215.6875c0 8.429687 6.835937 15.265625 15.269531 15.265625zm0 0"/></svg>