<svg xmlns="http://www.w3.org/2000/svg" width="114" height="114" viewBox="0 0 114 114"><defs><style>.a{fill:#e5e5e5;}.b{opacity:0.66;}.c,.d{fill:none;stroke:#21bbfa;stroke-linecap:round;stroke-width:2px;}.c{stroke-miterlimit:10;}.d{stroke-linejoin:round;}.e{fill:#b3b2b9;font-size:14px;font-family:Alef-Regular, Alef;}</style></defs><g transform="translate(-141 -931)"><circle class="a" cx="57" cy="57" r="57" transform="translate(141 931)"/><g class="b" transform="translate(312.903 787.297)"><path class="c" d="M-102.146,184.42c-1.489,5.391-5.706,10.781-10.676,10.781-4.991,0-9.222-5.433-10.694-10.846" transform="translate(-2.128 -4.765)"/><line class="c" y2="10.942" transform="translate(-125.405 207.275)"/><path class="c" d="M-98.606,226.809a3.214,3.214,0,0,0,3.213-3.214v-3.672c0-9.155-4.165-13.782-13.758-15.8l-5.8,4.029-5.8-4.029c-9.594,2.02-13.758,6.647-13.758,15.8V223.6a3.214,3.214,0,0,0,3.213,3.214Z" transform="translate(0 -8.593)"/><line class="c" y2="10.942" transform="translate(-104.498 207.275)"/><path class="c" d="M-117.449,202.577c1.444-1.2,1.444-6.426,1.444-6.426" transform="translate(-3.303 -7.049)"/><path class="c" d="M-103.408,202.577c-1.444-1.2-1.444-6.426-1.444-6.426" transform="translate(-5.742 -7.049)"/><path class="d" d="M-113.6,159.743c10.629,0,15.15,3.964,11.763,19.457a.606.606,0,0,1-1.175.033c-.623-2.276-1.486-6.888-1.486-6.888a1.039,1.039,0,0,0-1.09-.953c-3.732-.041-7.862-2.4-7.862-2.4a.728.728,0,0,0-.906.813l1.551,4.163-6.908-3.652a1.644,1.644,0,0,0-1.968.339l-1.835,8.509a.606.606,0,0,1-1.177-.022c-3.369-15.441,1.088-19.4,11.7-19.4" transform="translate(-1.687 0)"/></g><text class="e" transform="translate(198 1022)"><tspan x="-41.412" y="0"></tspan></text></g></svg>