<svg xmlns="http://www.w3.org/2000/svg" width="99.886" height="26.532" viewBox="0 0 99.886 26.532"><defs><style>.a{fill:#2a3c4a;font-size:11px;font-family:CenturyGothic-Bold, Century Gothic;font-weight:700;}.b{font-size:8px;font-family:CenturyGothic, Century Gothic;font-weight:400;}.c{fill:#3c658b;}.d{fill:#e3b05b;}.e{fill:#c3535e;}.f{fill:#8ac5d1;}</style></defs><g transform="translate(0.01 0.003)"><g transform="translate(-0.01 -0.003)"><text class="a" transform="translate(38.886 12.588)"><tspan x="0" y="0">Hilma</tspan><tspan class="b"><tspan x="0" y="10">tech for impact</tspan></tspan></text><path class="c" d="M30.7,34.482a5.585,5.585,0,0,1-3.991-1.7l-7.724-7.7a5.651,5.651,0,1,1,7.61-8.356,5.743,5.743,0,0,1,.865-.588l1.158,2.091a3.192,3.192,0,0,0-.737.56L26.6,20.069,25.3,18.777A3.26,3.26,0,1,0,20.7,23.39L28.41,31.1a3.115,3.115,0,0,0,4.388.153l1-.957,1.646,1.742-1.01.957A5.417,5.417,0,0,1,30.7,34.482Z" transform="translate(-8.933 -7.951)"/><path class="d" d="M8.915,24.4l-7.446-7.02a4.934,4.934,0,0,1-.038-7.006L11.078.73l1.694,1.694L3.129,12.067a2.541,2.541,0,0,0,0,3.594l7.427,7Z" transform="translate(0.01 -0.379)"/><path class="e" d="M23.406,34.623a5.494,5.494,0,0,1-3.776-1.5l-.991-.957,1.641-1.742.991.957a3.048,3.048,0,0,0,4.264-.048l7.738-7.714a3.259,3.259,0,0,0-2.3-5.57,3.317,3.317,0,0,0-1.575.4l-1.153-2.092a5.652,5.652,0,0,1,6.7,8.953l-7.709,7.7a5.264,5.264,0,0,1-3.833,1.608Z" transform="translate(-9.715 -8.172)"/><path class="f" d="M51.166,24.569l-1.622-1.742,7.408-7.006a2.508,2.508,0,0,0,.727-1.771,2.536,2.536,0,0,0-.747-1.8L47.29,2.609,48.984.92l9.652,9.638a4.929,4.929,0,0,1,0,6.982Z" transform="translate(-24.655 -0.478)"/><path class="d" d="M16.7,5.7a1.2,1.2,0,0,1-.847-2.043L19.171.348a1.2,1.2,0,0,1,1.694,1.694L17.558,5.348A1.2,1.2,0,0,1,16.7,5.7Z" transform="translate(-8.083 0.003)"/><path class="f" d="M50.584,5.415a1.187,1.187,0,0,1-.842-.349L46.871,2.195A1.2,1.2,0,1,1,48.589.525L51.46,3.4a1.2,1.2,0,0,1-.876,2.019Z" transform="translate(-24.26 -0.083)"/></g></g></svg>